# xmcd CD database file
#
# Track frame offsets:
#	183
#	9540
#	24493
#	38615
#	50518
#	61213
#	74583
#	88640
#	98740
#	109353
#	123825
#	135280
#	145583
#	157825
#
# Disc length: 2295 seconds
#
# Revision: 1
# Processed by: cddbd v1.5.2PL0 Copyright (c) Steve Scherf et al.
# Submitted via: CDex 1.70beta2
#
DISCID=ad08f50e
DTITLE=Charlie Pride - 14 Favourite Hits
DYEAR=1900
DGENRE=Country
TTITLE0=Kiss An Angel Good Mornin'
TTITLE1=Millers Cave
TTITLE2=Green, Green Grass Of Home
TTITLE3=Louisiana Man
TTITLE4=Shutters and Boards
TTITLE5=All His Children
TTITLE6=Detroit City
TTITLE7=Is Anybode Goin' To San Antone
TTITLE8=A Brand New Bed Of Roses
TTITLE9=Amazing Love
TTITLE10=Six Days On The Road
TTITLE11=Before The Next Teardrop Falls
TTITLE12=Lovesick Blues
TTITLE13=Kaw Liga
EXTD=
EXTT0=
EXTT1=
EXTT2=
EXTT3=
EXTT4=
EXTT5=
EXTT6=
EXTT7=
EXTT8=
EXTT9=
EXTT10=
EXTT11=
EXTT12=
EXTT13=
PLAYORDER=
